<svg width="21" height="20" viewBox="0 0 21 20" fill="none" xmlns="http://www.w3.org/2000/svg">
<path d="M14.4375 17.0833H6.5625" stroke="white" stroke-width="2" stroke-linecap="round"/>
<path d="M11.5 15.4167C11.5 15.9689 11.0523 16.4167 10.5 16.4167C9.94772 16.4167 9.5 15.9689 9.5 15.4167H11.5ZM9.5 15.4167V13.3333H11.5V15.4167H9.5Z" fill="white"/>
<path d="M9.1875 7.91666H11.8125" stroke="white" stroke-width="2" stroke-linecap="round"/>
<path d="M4.8125 12.0833C4.8125 12.0833 3.0625 10.8333 3.0625 8.74999C3.0625 8.14949 3.0625 7.61822 3.0625 7.16617C3.0625 6.19967 3.846 5.41666 4.8125 5.41666V5.41666C5.779 5.41666 6.5625 6.20016 6.5625 7.16666V7.91666" stroke="white" stroke-width="2" stroke-linecap="round"/>
<path d="M16.1875 12.0833C16.1875 12.0833 17.9375 10.8333 17.9375 8.74999C17.9375 8.14949 17.9375 7.61822 17.9375 7.16617C17.9375 6.19967 17.154 5.41666 16.1875 5.41666V5.41666C15.221 5.41666 14.4375 6.20016 14.4375 7.16666V7.91666" stroke="white" stroke-width="2" stroke-linecap="round"/>
<path d="M14.4375 9.05155V6.58334C14.4375 5.47877 13.5421 4.58334 12.4375 4.58334H8.5625C7.45793 4.58334 6.5625 5.47877 6.5625 6.58334V9.05155C6.5625 10.4206 7.26269 11.6946 8.41847 12.4284L9.96399 13.4097C10.2911 13.6174 10.7089 13.6174 11.036 13.4097L12.5815 12.4284C13.7373 11.6946 14.4375 10.4206 14.4375 9.05155Z" stroke="white" stroke-width="2"/>
</svg>
