<svg width="140" height="138" viewBox="0 0 70 69" fill="none" xmlns="http://www.w3.org/2000/svg">
<mask id="path-1-inside-1_235_136" fill="white">
<path d="M23.9021 10.277C23.3078 9.68435 23.3078 8.72342 23.9021 8.13073L26.0542 5.98442C26.6485 5.39174 27.612 5.39174 28.2062 5.98442C28.8005 6.57711 28.8005 7.53804 28.2062 8.13073L26.0542 10.277C25.4599 10.8697 24.4964 10.8697 23.9021 10.277Z"/>
<path d="M15.9891 15.1551C15.3948 15.7478 15.3948 16.7088 15.9891 17.3014C16.5833 17.8941 17.5468 17.8941 18.1411 17.3014L20.2932 15.1551C20.8875 14.5624 20.8875 13.6015 20.2932 13.0088C19.6989 12.4161 18.7354 12.4161 18.1411 13.0088L15.9891 15.1551Z"/>
<path d="M25.1195 18.1905C24.5252 18.7832 24.5252 19.7441 25.1195 20.3368C25.7138 20.9295 26.6773 20.9295 27.2716 20.3368L29.4236 18.1905C30.0179 17.5978 30.0179 16.6368 29.4236 16.0442C28.8293 15.4515 27.8658 15.4515 27.2716 16.0442L25.1195 18.1905Z"/>
<path d="M34.2499 9.08446C33.6556 9.67715 33.6556 10.6381 34.2499 11.2308C34.8442 11.8235 35.8077 11.8235 36.402 11.2308L38.554 9.08446C39.1483 8.49177 39.1483 7.53084 38.554 6.93815C37.9598 6.34547 36.9963 6.34547 36.402 6.93815L34.2499 9.08446Z"/>
<path d="M43.3804 14.2661C42.7861 13.6734 42.7861 12.7125 43.3804 12.1198L45.5324 9.97349C46.1267 9.3808 47.0902 9.3808 47.6845 9.97349C48.2788 10.5662 48.2788 11.5271 47.6845 12.1198L45.5324 14.2661C44.9381 14.8588 43.9746 14.8588 43.3804 14.2661Z"/>
<path d="M49.4673 18.1905C48.873 18.7832 48.873 19.7441 49.4673 20.3368C50.0616 20.9295 51.0251 20.9295 51.6194 20.3368L53.7714 18.1905C54.3657 17.5978 54.3657 16.6368 53.7714 16.0442C53.1772 15.4515 52.2136 15.4515 51.6194 16.0442L49.4673 18.1905Z"/>
<path d="M36.076 21.2474C35.4817 20.6547 35.4817 19.6938 36.076 19.1011L38.2281 16.9548C38.8224 16.3621 39.7859 16.3621 40.3801 16.9548C40.9744 17.5475 40.9744 18.5084 40.3801 19.1011L38.2281 21.2474C37.6338 21.8401 36.6703 21.8401 36.076 21.2474Z"/>
<path fill-rule="evenodd" clip-rule="evenodd" d="M6.73336 26.7453C3.37236 26.6757 0.630133 23.8526 1.59932 20.6422C2.05553 19.131 2.67287 17.6517 3.44681 16.2209C5.22015 12.9425 7.78096 9.98331 10.983 7.51231C14.1851 5.04131 17.9658 3.10688 22.1091 1.81946C26.2525 0.532043 30.6774 -0.0831455 35.1312 0.00901552C39.585 0.101177 43.9805 0.898888 48.0667 2.3566C52.153 3.81431 55.8499 5.90347 58.9465 8.5048C62.043 11.1061 64.4786 14.1687 66.114 17.5176C66.3737 18.0494 66.6124 18.5868 66.83 19.1289C68.7037 23.7979 64.3913 27.9384 59.3498 27.8341L6.73336 26.7453ZM4.51357 21.5173C4.90923 20.2067 5.44671 18.9167 6.12537 17.662C7.68039 14.7872 9.9511 12.1465 12.8455 9.91294C15.7408 7.67872 19.1922 5.90503 23.0144 4.71741C26.8361 3.52992 30.9335 2.95814 35.068 3.0437C39.2026 3.12925 43.2726 3.87004 47.0417 5.2146C50.8112 6.55931 54.1859 8.47425 56.9858 10.8263C59.7848 13.1777 61.9437 15.9101 63.3778 18.8467C63.6056 19.3131 63.8145 19.7834 64.0044 20.2567C64.4605 21.3932 64.2109 22.3803 63.4384 23.2218C62.5934 24.1422 61.1155 24.8346 59.4129 24.7994L6.7965 23.7106C5.93476 23.6928 5.22668 23.319 4.82728 22.8663C4.46896 22.4602 4.36081 22.0233 4.51357 21.5173Z"/>
<path d="M6.08695 56.8587C2.72522 56.8587 2.00455e-08 59.5766 2.00455e-08 62.9293C2.00455e-08 66.2821 2.72522 69 6.08695 69H50.2174C51.0578 69 51.7391 68.3205 51.7391 67.4823C51.7391 66.6441 51.0578 65.9647 50.2174 65.9647H6.08695C4.40609 65.9647 3.04348 64.6057 3.04348 62.9293C3.04348 61.253 4.40609 59.894 6.08695 59.894H63.913C65.5939 59.894 66.9565 61.253 66.9565 62.9293C66.9565 64.6057 65.5939 65.9647 63.913 65.9647H57.8261C56.9856 65.9647 56.3043 66.6441 56.3043 67.4823C56.3043 68.3205 56.9856 69 57.8261 69H63.913C67.2748 69 70 66.2821 70 62.9293C70 59.5766 67.2748 56.8587 63.913 56.8587H6.08695Z"/>
<path d="M2.54538 31.453C3.481 32.3013 4.24831 32.576 4.86957 32.576C5.49084 32.576 6.25815 32.3013 7.19377 31.453C8.49003 30.2777 9.95461 29.5406 11.5652 29.5406C13.1758 29.5406 14.6404 30.2777 15.9367 31.453C16.8723 32.3013 17.6396 32.576 18.2609 32.576C18.8821 32.576 19.6494 32.3013 20.5851 31.453C21.8813 30.2777 23.3459 29.5406 24.9565 29.5406C26.5671 29.5406 28.0317 30.2777 29.328 31.453C30.2636 32.3013 31.0309 32.576 31.6522 32.576C32.2734 32.576 33.0407 32.3013 33.9764 31.453C35.2726 30.2777 36.7372 29.5406 38.3478 29.5406C39.9584 29.5406 41.423 30.2777 42.7193 31.453C43.6549 32.3013 44.4222 32.576 45.0435 32.576C45.6647 32.576 46.432 32.3013 47.3677 31.453C48.6639 30.2777 50.1285 29.5406 51.7391 29.5406C53.3497 29.5406 54.8143 30.2777 56.1106 31.453C57.0462 32.3013 57.8135 32.576 58.4348 32.576C59.056 32.576 59.8233 32.3013 60.759 31.453C62.0552 30.2777 63.5198 29.5406 65.1304 29.5406C66.741 29.5406 68.2056 30.2777 69.5019 31.453C70.1238 32.0168 70.1696 32.9767 69.6042 33.5969C69.0389 34.2171 68.0765 34.2628 67.4546 33.6989C66.519 32.8507 65.7517 32.576 65.1304 32.576C64.5092 32.576 63.7418 32.8507 62.8062 33.6989C61.51 34.8742 60.0454 35.6113 58.4348 35.6113C56.8242 35.6113 55.3596 34.8742 54.0633 33.6989C53.1277 32.8507 52.3604 32.576 51.7391 32.576C51.1179 32.576 50.3506 32.8507 49.4149 33.6989C48.1187 34.8742 46.6541 35.6113 45.0435 35.6113C43.4329 35.6113 41.9683 34.8742 40.672 33.6989C39.7364 32.8507 38.9691 32.576 38.3478 32.576C37.7266 32.576 36.9593 32.8507 36.0236 33.6989C34.7274 34.8742 33.2628 35.6113 31.6522 35.6113C30.0416 35.6113 28.577 34.8742 27.2807 33.6989C26.3451 32.8507 25.5778 32.576 24.9565 32.576C24.3353 32.576 23.568 32.8507 22.6323 33.6989C21.3361 34.8742 19.8715 35.6113 18.2609 35.6113C16.6503 35.6113 15.1857 34.8742 13.8894 33.6989C12.9538 32.8507 12.1865 32.576 11.5652 32.576C10.944 32.576 10.1767 32.8507 9.24103 33.6989C7.94477 34.8742 6.48019 35.6113 4.86957 35.6113C3.25896 35.6113 1.79438 34.8742 0.498117 33.6989C-0.123753 33.1351 -0.169582 32.1753 0.395754 31.5551C0.96109 30.9349 1.92351 30.8892 2.54538 31.453Z"/>
<path d="M6.08697 43.1996C6.08697 42.3615 6.76827 41.682 7.6087 41.682H65.4348C66.2752 41.682 66.9565 41.0025 66.9565 40.1643C66.9565 39.3261 66.2752 38.6466 65.4348 38.6466H7.6087C5.08741 38.6466 3.04349 40.6851 3.04349 43.1996C3.04349 45.7142 5.08741 47.7526 7.60871 47.7526H62.3913C63.2317 47.7526 63.913 48.4321 63.913 49.2703C63.913 50.1085 63.2317 50.788 62.3913 50.788H4.56523C3.72479 50.788 3.04349 51.4675 3.04349 52.3056C3.04349 53.1438 3.72479 53.8233 4.56523 53.8233H62.3913C64.9126 53.8233 66.9565 51.7849 66.9565 49.2703C66.9565 46.7558 64.9126 44.7173 62.3913 44.7173H7.60871C6.76827 44.7173 6.08697 44.0378 6.08697 43.1996Z"/>
</mask>
<path d="M23.9021 10.277C23.3078 9.68435 23.3078 8.72342 23.9021 8.13073L26.0542 5.98442C26.6485 5.39174 27.612 5.39174 28.2062 5.98442C28.8005 6.57711 28.8005 7.53804 28.2062 8.13073L26.0542 10.277C25.4599 10.8697 24.4964 10.8697 23.9021 10.277Z" fill="white"/>
<path d="M15.9891 15.1551C15.3948 15.7478 15.3948 16.7088 15.9891 17.3014C16.5833 17.8941 17.5468 17.8941 18.1411 17.3014L20.2932 15.1551C20.8875 14.5624 20.8875 13.6015 20.2932 13.0088C19.6989 12.4161 18.7354 12.4161 18.1411 13.0088L15.9891 15.1551Z" fill="white"/>
<path d="M25.1195 18.1905C24.5252 18.7832 24.5252 19.7441 25.1195 20.3368C25.7138 20.9295 26.6773 20.9295 27.2716 20.3368L29.4236 18.1905C30.0179 17.5978 30.0179 16.6368 29.4236 16.0442C28.8293 15.4515 27.8658 15.4515 27.2716 16.0442L25.1195 18.1905Z" fill="white"/>
<path d="M34.2499 9.08446C33.6556 9.67715 33.6556 10.6381 34.2499 11.2308C34.8442 11.8235 35.8077 11.8235 36.402 11.2308L38.554 9.08446C39.1483 8.49177 39.1483 7.53084 38.554 6.93815C37.9598 6.34547 36.9963 6.34547 36.402 6.93815L34.2499 9.08446Z" fill="white"/>
<path d="M43.3804 14.2661C42.7861 13.6734 42.7861 12.7125 43.3804 12.1198L45.5324 9.97349C46.1267 9.3808 47.0902 9.3808 47.6845 9.97349C48.2788 10.5662 48.2788 11.5271 47.6845 12.1198L45.5324 14.2661C44.9381 14.8588 43.9746 14.8588 43.3804 14.2661Z" fill="white"/>
<path d="M49.4673 18.1905C48.873 18.7832 48.873 19.7441 49.4673 20.3368C50.0616 20.9295 51.0251 20.9295 51.6194 20.3368L53.7714 18.1905C54.3657 17.5978 54.3657 16.6368 53.7714 16.0442C53.1772 15.4515 52.2136 15.4515 51.6194 16.0442L49.4673 18.1905Z" fill="white"/>
<path d="M36.076 21.2474C35.4817 20.6547 35.4817 19.6938 36.076 19.1011L38.2281 16.9548C38.8224 16.3621 39.7859 16.3621 40.3801 16.9548C40.9744 17.5475 40.9744 18.5084 40.3801 19.1011L38.2281 21.2474C37.6338 21.8401 36.6703 21.8401 36.076 21.2474Z" fill="white"/>
<path fill-rule="evenodd" clip-rule="evenodd" d="M6.73336 26.7453C3.37236 26.6757 0.630133 23.8526 1.59932 20.6422C2.05553 19.131 2.67287 17.6517 3.44681 16.2209C5.22015 12.9425 7.78096 9.98331 10.983 7.51231C14.1851 5.04131 17.9658 3.10688 22.1091 1.81946C26.2525 0.532043 30.6774 -0.0831455 35.1312 0.00901552C39.585 0.101177 43.9805 0.898888 48.0667 2.3566C52.153 3.81431 55.8499 5.90347 58.9465 8.5048C62.043 11.1061 64.4786 14.1687 66.114 17.5176C66.3737 18.0494 66.6124 18.5868 66.83 19.1289C68.7037 23.7979 64.3913 27.9384 59.3498 27.8341L6.73336 26.7453ZM4.51357 21.5173C4.90923 20.2067 5.44671 18.9167 6.12537 17.662C7.68039 14.7872 9.9511 12.1465 12.8455 9.91294C15.7408 7.67872 19.1922 5.90503 23.0144 4.71741C26.8361 3.52992 30.9335 2.95814 35.068 3.0437C39.2026 3.12925 43.2726 3.87004 47.0417 5.2146C50.8112 6.55931 54.1859 8.47425 56.9858 10.8263C59.7848 13.1777 61.9437 15.9101 63.3778 18.8467C63.6056 19.3131 63.8145 19.7834 64.0044 20.2567C64.4605 21.3932 64.2109 22.3803 63.4384 23.2218C62.5934 24.1422 61.1155 24.8346 59.4129 24.7994L6.7965 23.7106C5.93476 23.6928 5.22668 23.319 4.82728 22.8663C4.46896 22.4602 4.36081 22.0233 4.51357 21.5173Z" fill="white"/>
<path d="M6.08695 56.8587C2.72522 56.8587 2.00455e-08 59.5766 2.00455e-08 62.9293C2.00455e-08 66.2821 2.72522 69 6.08695 69H50.2174C51.0578 69 51.7391 68.3205 51.7391 67.4823C51.7391 66.6441 51.0578 65.9647 50.2174 65.9647H6.08695C4.40609 65.9647 3.04348 64.6057 3.04348 62.9293C3.04348 61.253 4.40609 59.894 6.08695 59.894H63.913C65.5939 59.894 66.9565 61.253 66.9565 62.9293C66.9565 64.6057 65.5939 65.9647 63.913 65.9647H57.8261C56.9856 65.9647 56.3043 66.6441 56.3043 67.4823C56.3043 68.3205 56.9856 69 57.8261 69H63.913C67.2748 69 70 66.2821 70 62.9293C70 59.5766 67.2748 56.8587 63.913 56.8587H6.08695Z" fill="white"/>
<path d="M2.54538 31.453C3.481 32.3013 4.24831 32.576 4.86957 32.576C5.49084 32.576 6.25815 32.3013 7.19377 31.453C8.49003 30.2777 9.95461 29.5406 11.5652 29.5406C13.1758 29.5406 14.6404 30.2777 15.9367 31.453C16.8723 32.3013 17.6396 32.576 18.2609 32.576C18.8821 32.576 19.6494 32.3013 20.5851 31.453C21.8813 30.2777 23.3459 29.5406 24.9565 29.5406C26.5671 29.5406 28.0317 30.2777 29.328 31.453C30.2636 32.3013 31.0309 32.576 31.6522 32.576C32.2734 32.576 33.0407 32.3013 33.9764 31.453C35.2726 30.2777 36.7372 29.5406 38.3478 29.5406C39.9584 29.5406 41.423 30.2777 42.7193 31.453C43.6549 32.3013 44.4222 32.576 45.0435 32.576C45.6647 32.576 46.432 32.3013 47.3677 31.453C48.6639 30.2777 50.1285 29.5406 51.7391 29.5406C53.3497 29.5406 54.8143 30.2777 56.1106 31.453C57.0462 32.3013 57.8135 32.576 58.4348 32.576C59.056 32.576 59.8233 32.3013 60.759 31.453C62.0552 30.2777 63.5198 29.5406 65.1304 29.5406C66.741 29.5406 68.2056 30.2777 69.5019 31.453C70.1238 32.0168 70.1696 32.9767 69.6042 33.5969C69.0389 34.2171 68.0765 34.2628 67.4546 33.6989C66.519 32.8507 65.7517 32.576 65.1304 32.576C64.5092 32.576 63.7418 32.8507 62.8062 33.6989C61.51 34.8742 60.0454 35.6113 58.4348 35.6113C56.8242 35.6113 55.3596 34.8742 54.0633 33.6989C53.1277 32.8507 52.3604 32.576 51.7391 32.576C51.1179 32.576 50.3506 32.8507 49.4149 33.6989C48.1187 34.8742 46.6541 35.6113 45.0435 35.6113C43.4329 35.6113 41.9683 34.8742 40.672 33.6989C39.7364 32.8507 38.9691 32.576 38.3478 32.576C37.7266 32.576 36.9593 32.8507 36.0236 33.6989C34.7274 34.8742 33.2628 35.6113 31.6522 35.6113C30.0416 35.6113 28.577 34.8742 27.2807 33.6989C26.3451 32.8507 25.5778 32.576 24.9565 32.576C24.3353 32.576 23.568 32.8507 22.6323 33.6989C21.3361 34.8742 19.8715 35.6113 18.2609 35.6113C16.6503 35.6113 15.1857 34.8742 13.8894 33.6989C12.9538 32.8507 12.1865 32.576 11.5652 32.576C10.944 32.576 10.1767 32.8507 9.24103 33.6989C7.94477 34.8742 6.48019 35.6113 4.86957 35.6113C3.25896 35.6113 1.79438 34.8742 0.498117 33.6989C-0.123753 33.1351 -0.169582 32.1753 0.395754 31.5551C0.96109 30.9349 1.92351 30.8892 2.54538 31.453Z" fill="white"/>
<path d="M6.08697 43.1996C6.08697 42.3615 6.76827 41.682 7.6087 41.682H65.4348C66.2752 41.682 66.9565 41.0025 66.9565 40.1643C66.9565 39.3261 66.2752 38.6466 65.4348 38.6466H7.6087C5.08741 38.6466 3.04349 40.6851 3.04349 43.1996C3.04349 45.7142 5.08741 47.7526 7.60871 47.7526H62.3913C63.2317 47.7526 63.913 48.4321 63.913 49.2703C63.913 50.1085 63.2317 50.788 62.3913 50.788H4.56523C3.72479 50.788 3.04349 51.4675 3.04349 52.3056C3.04349 53.1438 3.72479 53.8233 4.56523 53.8233H62.3913C64.9126 53.8233 66.9565 51.7849 66.9565 49.2703C66.9565 46.7558 64.9126 44.7173 62.3913 44.7173H7.60871C6.76827 44.7173 6.08697 44.0378 6.08697 43.1996Z" fill="white"/>
<path d="M23.9021 10.277C23.3078 9.68435 23.3078 8.72342 23.9021 8.13073L26.0542 5.98442C26.6485 5.39174 27.612 5.39174 28.2062 5.98442C28.8005 6.57711 28.8005 7.53804 28.2062 8.13073L26.0542 10.277C25.4599 10.8697 24.4964 10.8697 23.9021 10.277Z" stroke="white" stroke-width="7.43124" mask="url(#path-1-inside-1_235_136)"/>
<path d="M15.9891 15.1551C15.3948 15.7478 15.3948 16.7088 15.9891 17.3014C16.5833 17.8941 17.5468 17.8941 18.1411 17.3014L20.2932 15.1551C20.8875 14.5624 20.8875 13.6015 20.2932 13.0088C19.6989 12.4161 18.7354 12.4161 18.1411 13.0088L15.9891 15.1551Z" stroke="white" stroke-width="7.43124" mask="url(#path-1-inside-1_235_136)"/>
<path d="M25.1195 18.1905C24.5252 18.7832 24.5252 19.7441 25.1195 20.3368C25.7138 20.9295 26.6773 20.9295 27.2716 20.3368L29.4236 18.1905C30.0179 17.5978 30.0179 16.6368 29.4236 16.0442C28.8293 15.4515 27.8658 15.4515 27.2716 16.0442L25.1195 18.1905Z" stroke="white" stroke-width="7.43124" mask="url(#path-1-inside-1_235_136)"/>
<path d="M34.2499 9.08446C33.6556 9.67715 33.6556 10.6381 34.2499 11.2308C34.8442 11.8235 35.8077 11.8235 36.402 11.2308L38.554 9.08446C39.1483 8.49177 39.1483 7.53084 38.554 6.93815C37.9598 6.34547 36.9963 6.34547 36.402 6.93815L34.2499 9.08446Z" stroke="white" stroke-width="7.43124" mask="url(#path-1-inside-1_235_136)"/>
<path d="M43.3804 14.2661C42.7861 13.6734 42.7861 12.7125 43.3804 12.1198L45.5324 9.97349C46.1267 9.3808 47.0902 9.3808 47.6845 9.97349C48.2788 10.5662 48.2788 11.5271 47.6845 12.1198L45.5324 14.2661C44.9381 14.8588 43.9746 14.8588 43.3804 14.2661Z" stroke="white" stroke-width="7.43124" mask="url(#path-1-inside-1_235_136)"/>
<path d="M49.4673 18.1905C48.873 18.7832 48.873 19.7441 49.4673 20.3368C50.0616 20.9295 51.0251 20.9295 51.6194 20.3368L53.7714 18.1905C54.3657 17.5978 54.3657 16.6368 53.7714 16.0442C53.1772 15.4515 52.2136 15.4515 51.6194 16.0442L49.4673 18.1905Z" stroke="white" stroke-width="7.43124" mask="url(#path-1-inside-1_235_136)"/>
<path d="M36.076 21.2474C35.4817 20.6547 35.4817 19.6938 36.076 19.1011L38.2281 16.9548C38.8224 16.3621 39.7859 16.3621 40.3801 16.9548C40.9744 17.5475 40.9744 18.5084 40.3801 19.1011L38.2281 21.2474C37.6338 21.8401 36.6703 21.8401 36.076 21.2474Z" stroke="white" stroke-width="7.43124" mask="url(#path-1-inside-1_235_136)"/>
<path fill-rule="evenodd" clip-rule="evenodd" d="M6.73336 26.7453C3.37236 26.6757 0.630133 23.8526 1.59932 20.6422C2.05553 19.131 2.67287 17.6517 3.44681 16.2209C5.22015 12.9425 7.78096 9.98331 10.983 7.51231C14.1851 5.04131 17.9658 3.10688 22.1091 1.81946C26.2525 0.532043 30.6774 -0.0831455 35.1312 0.00901552C39.585 0.101177 43.9805 0.898888 48.0667 2.3566C52.153 3.81431 55.8499 5.90347 58.9465 8.5048C62.043 11.1061 64.4786 14.1687 66.114 17.5176C66.3737 18.0494 66.6124 18.5868 66.83 19.1289C68.7037 23.7979 64.3913 27.9384 59.3498 27.8341L6.73336 26.7453ZM4.51357 21.5173C4.90923 20.2067 5.44671 18.9167 6.12537 17.662C7.68039 14.7872 9.9511 12.1465 12.8455 9.91294C15.7408 7.67872 19.1922 5.90503 23.0144 4.71741C26.8361 3.52992 30.9335 2.95814 35.068 3.0437C39.2026 3.12925 43.2726 3.87004 47.0417 5.2146C50.8112 6.55931 54.1859 8.47425 56.9858 10.8263C59.7848 13.1777 61.9437 15.9101 63.3778 18.8467C63.6056 19.3131 63.8145 19.7834 64.0044 20.2567C64.4605 21.3932 64.2109 22.3803 63.4384 23.2218C62.5934 24.1422 61.1155 24.8346 59.4129 24.7994L6.7965 23.7106C5.93476 23.6928 5.22668 23.319 4.82728 22.8663C4.46896 22.4602 4.36081 22.0233 4.51357 21.5173Z" stroke="white" stroke-width="7.43124" mask="url(#path-1-inside-1_235_136)"/>
<path d="M6.08695 56.8587C2.72522 56.8587 2.00455e-08 59.5766 2.00455e-08 62.9293C2.00455e-08 66.2821 2.72522 69 6.08695 69H50.2174C51.0578 69 51.7391 68.3205 51.7391 67.4823C51.7391 66.6441 51.0578 65.9647 50.2174 65.9647H6.08695C4.40609 65.9647 3.04348 64.6057 3.04348 62.9293C3.04348 61.253 4.40609 59.894 6.08695 59.894H63.913C65.5939 59.894 66.9565 61.253 66.9565 62.9293C66.9565 64.6057 65.5939 65.9647 63.913 65.9647H57.8261C56.9856 65.9647 56.3043 66.6441 56.3043 67.4823C56.3043 68.3205 56.9856 69 57.8261 69H63.913C67.2748 69 70 66.2821 70 62.9293C70 59.5766 67.2748 56.8587 63.913 56.8587H6.08695Z" stroke="white" stroke-width="7.43124" mask="url(#path-1-inside-1_235_136)"/>
<path d="M2.54538 31.453C3.481 32.3013 4.24831 32.576 4.86957 32.576C5.49084 32.576 6.25815 32.3013 7.19377 31.453C8.49003 30.2777 9.95461 29.5406 11.5652 29.5406C13.1758 29.5406 14.6404 30.2777 15.9367 31.453C16.8723 32.3013 17.6396 32.576 18.2609 32.576C18.8821 32.576 19.6494 32.3013 20.5851 31.453C21.8813 30.2777 23.3459 29.5406 24.9565 29.5406C26.5671 29.5406 28.0317 30.2777 29.328 31.453C30.2636 32.3013 31.0309 32.576 31.6522 32.576C32.2734 32.576 33.0407 32.3013 33.9764 31.453C35.2726 30.2777 36.7372 29.5406 38.3478 29.5406C39.9584 29.5406 41.423 30.2777 42.7193 31.453C43.6549 32.3013 44.4222 32.576 45.0435 32.576C45.6647 32.576 46.432 32.3013 47.3677 31.453C48.6639 30.2777 50.1285 29.5406 51.7391 29.5406C53.3497 29.5406 54.8143 30.2777 56.1106 31.453C57.0462 32.3013 57.8135 32.576 58.4348 32.576C59.056 32.576 59.8233 32.3013 60.759 31.453C62.0552 30.2777 63.5198 29.5406 65.1304 29.5406C66.741 29.5406 68.2056 30.2777 69.5019 31.453C70.1238 32.0168 70.1696 32.9767 69.6042 33.5969C69.0389 34.2171 68.0765 34.2628 67.4546 33.6989C66.519 32.8507 65.7517 32.576 65.1304 32.576C64.5092 32.576 63.7418 32.8507 62.8062 33.6989C61.51 34.8742 60.0454 35.6113 58.4348 35.6113C56.8242 35.6113 55.3596 34.8742 54.0633 33.6989C53.1277 32.8507 52.3604 32.576 51.7391 32.576C51.1179 32.576 50.3506 32.8507 49.4149 33.6989C48.1187 34.8742 46.6541 35.6113 45.0435 35.6113C43.4329 35.6113 41.9683 34.8742 40.672 33.6989C39.7364 32.8507 38.9691 32.576 38.3478 32.576C37.7266 32.576 36.9593 32.8507 36.0236 33.6989C34.7274 34.8742 33.2628 35.6113 31.6522 35.6113C30.0416 35.6113 28.577 34.8742 27.2807 33.6989C26.3451 32.8507 25.5778 32.576 24.9565 32.576C24.3353 32.576 23.568 32.8507 22.6323 33.6989C21.3361 34.8742 19.8715 35.6113 18.2609 35.6113C16.6503 35.6113 15.1857 34.8742 13.8894 33.6989C12.9538 32.8507 12.1865 32.576 11.5652 32.576C10.944 32.576 10.1767 32.8507 9.24103 33.6989C7.94477 34.8742 6.48019 35.6113 4.86957 35.6113C3.25896 35.6113 1.79438 34.8742 0.498117 33.6989C-0.123753 33.1351 -0.169582 32.1753 0.395754 31.5551C0.96109 30.9349 1.92351 30.8892 2.54538 31.453Z" stroke="white" stroke-width="7.43124" mask="url(#path-1-inside-1_235_136)"/>
<path d="M6.08697 43.1996C6.08697 42.3615 6.76827 41.682 7.6087 41.682H65.4348C66.2752 41.682 66.9565 41.0025 66.9565 40.1643C66.9565 39.3261 66.2752 38.6466 65.4348 38.6466H7.6087C5.08741 38.6466 3.04349 40.6851 3.04349 43.1996C3.04349 45.7142 5.08741 47.7526 7.60871 47.7526H62.3913C63.2317 47.7526 63.913 48.4321 63.913 49.2703C63.913 50.1085 63.2317 50.788 62.3913 50.788H4.56523C3.72479 50.788 3.04349 51.4675 3.04349 52.3056C3.04349 53.1438 3.72479 53.8233 4.56523 53.8233H62.3913C64.9126 53.8233 66.9565 51.7849 66.9565 49.2703C66.9565 46.7558 64.9126 44.7173 62.3913 44.7173H7.60871C6.76827 44.7173 6.08697 44.0378 6.08697 43.1996Z" stroke="white" stroke-width="7.43124" mask="url(#path-1-inside-1_235_136)"/>
</svg>
