<svg width="48" height="48" viewBox="0 0 48 48" fill="none" xmlns="http://www.w3.org/2000/svg">
<path fill-rule="evenodd" clip-rule="evenodd" d="M13.8134 44.1734C16.274 44.3966 19.4476 44.4 24 44.4C28.5523 44.4 31.7261 44.3966 34.1866 44.1734C36.5976 43.955 37.9685 43.5487 39 42.953C40.6418 42.0053 42.0053 40.6418 42.953 39C43.5487 37.9685 43.955 36.5976 44.1734 34.1866C44.3966 31.7261 44.4 28.5523 44.4 24C44.4 19.4476 44.3966 16.274 44.1734 13.8134C43.955 11.4023 43.5487 10.0315 42.953 9C42.0053 7.35818 40.6418 5.99482 39 5.04694C37.9685 4.45138 36.5976 4.04498 34.1866 3.82646C31.7261 3.60346 28.5523 3.6 24 3.6C19.4476 3.6 16.274 3.60346 13.8134 3.82646C11.4023 4.04498 10.0315 4.45138 9 5.04694C7.35818 5.99482 5.99482 7.35818 5.04694 9C4.45138 10.0315 4.04498 11.4023 3.82646 13.8134C3.60346 16.274 3.6 19.4476 3.6 24C3.6 28.5523 3.60346 31.7261 3.82646 34.1866C4.04498 36.5976 4.45138 37.9685 5.04694 39C5.99482 40.6418 7.35818 42.0053 9 42.953C10.0315 43.5487 11.4023 43.955 13.8134 44.1734ZM1.92923 7.2C0 10.5415 0 15.0277 0 24C0 32.9724 0 37.4585 1.92923 40.8C3.1931 42.989 5.01091 44.8068 7.2 46.0709C10.5415 48 15.0277 48 24 48C32.9724 48 37.4585 48 40.8 46.0709C42.989 44.8068 44.8068 42.989 46.0709 40.8C48 37.4585 48 32.9724 48 24C48 15.0277 48 10.5415 46.0709 7.2C44.8068 5.01091 42.989 3.1931 40.8 1.92923C37.4585 0 32.9724 0 24 0C15.0277 0 10.5415 0 7.2 1.92923C5.01091 3.1931 3.1931 5.01091 1.92923 7.2Z" fill="white"/>
<path d="M16.8728 25.1278L19.8069 28.0618C22.1013 23.2361 24.7613 20.1176 27.0146 18.1458C28.3193 17.0044 29.4773 16.2563 30.3326 15.7858C30.7601 15.5507 31.1114 15.3851 31.3677 15.2745C31.4957 15.2192 31.5998 15.1777 31.6778 15.148C31.7169 15.1332 31.7493 15.1213 31.775 15.1122L31.8081 15.1006L31.8209 15.0962L31.8261 15.0944L31.8307 15.0929C32.7739 14.7785 33.7932 15.2882 34.1076 16.2313C34.4205 17.1698 33.9158 18.1844 32.9815 18.504L32.958 18.5127C32.9282 18.5241 32.873 18.5458 32.7948 18.5795C32.6385 18.6471 32.3899 18.7628 32.0673 18.9402C31.4227 19.2947 30.4807 19.8965 29.3853 20.8551C27.2021 22.7654 24.3672 26.1293 22.0712 31.8689C21.8465 32.4307 21.3546 32.8421 20.7619 32.9638C20.1692 33.0854 19.555 32.9011 19.1272 32.4732L14.3272 27.6732C13.6243 26.9702 13.6243 25.8307 14.3272 25.1278C15.0301 24.4248 16.1698 24.4248 16.8728 25.1278Z" fill="white"/>
</svg>
