<svg version="1.0" xmlns="http://www.w3.org/2000/svg"
 width="772.000000pt" height="916.000000pt" viewBox="0 0 772.000000 916.000000"
 preserveAspectRatio="xMidYMid meet">
<g transform="translate(0.000000,916.000000) scale(0.100000,-0.100000)"
fill="#000000" stroke="none">
<path fill="white" d="M5340 4560 l0 -4320 1120 0 1120 0 0 4320 0 4320 -1120 0 -1120 0 0
-4320z"/>
<path fill="white" d="M2780 3440 l0 -3200 1115 0 1115 0 0 3200 0 3200 -1115 0 -1115 0 0
-3200z"/>
<path fill="white" d="M210 2160 l0 -1920 1120 0 1120 0 0 1920 0 1920 -1120 0 -1120 0 0
-1920z"/>
</g>
</svg>