<svg width="31" height="31" viewBox="0 0 31 31" fill="none" xmlns="http://www.w3.org/2000/svg">
<path d="M6.45833 17.5585C6.45833 16.5494 6.45833 16.0448 6.67999 15.6141C6.90166 15.1833 7.31223 14.8901 8.13338 14.3035L14.3375 9.872C14.8989 9.47104 15.1795 9.27056 15.5 9.27056C15.8205 9.27056 16.1011 9.47104 16.6625 9.872L22.8666 14.3035C23.6878 14.8901 24.0983 15.1833 24.32 15.6141C24.5417 16.0448 24.5417 16.5494 24.5417 17.5585V25.125C24.5417 26.0678 24.5417 26.5392 24.2488 26.8321C23.9559 27.125 23.4845 27.125 22.5417 27.125H8.45833C7.51552 27.125 7.04411 27.125 6.75122 26.8321C6.45833 26.5392 6.45833 26.0678 6.45833 25.125V17.5585Z" fill="white"/>
<path d="M3.875 16.1783C3.875 16.4451 3.875 16.5786 3.9591 16.6197C4.04319 16.6608 4.14852 16.5789 4.35918 16.4151L14.2721 8.70501C14.862 8.24624 15.1569 8.01685 15.5 8.01685C15.8431 8.01685 16.138 8.24624 16.7279 8.70501L26.6408 16.4151C26.8515 16.5789 26.9568 16.6608 27.0409 16.6197C27.125 16.5786 27.125 16.4451 27.125 16.1783V15.1865C27.125 14.7061 27.125 14.466 27.0233 14.2581C26.9216 14.0501 26.732 13.9027 26.3529 13.6078L16.7279 6.12168C16.138 5.6629 15.8431 5.43352 15.5 5.43352C15.1569 5.43352 14.862 5.6629 14.2721 6.12168L4.64712 13.6078C4.26795 13.9027 4.07837 14.0501 3.97668 14.2581C3.875 14.466 3.875 14.7061 3.875 15.1865V16.1783Z" fill="white"/>
<path d="M16.7292 19.375H14.2708C13.1663 19.375 12.2708 20.2704 12.2708 21.375V26.975C12.2708 27.0578 12.338 27.125 12.4208 27.125H18.5792C18.662 27.125 18.7292 27.0578 18.7292 26.975V21.375C18.7292 20.2704 17.8337 19.375 16.7292 19.375Z" fill="white"/>
<rect x="20.6667" y="6.45834" width="2.58333" height="5.16667" rx="0.5" fill="white"/>
</svg>
