<svg width="31" height="30" viewBox="0 0 31 30" fill="none" xmlns="http://www.w3.org/2000/svg">
<path fill-rule="evenodd" clip-rule="evenodd" d="M5.04657 4.92157C3.875 6.09315 3.875 7.97876 3.875 11.75V18.25C3.875 22.0212 3.875 23.9069 5.04657 25.0784C6.21815 26.25 8.10376 26.25 11.875 26.25H19.125C22.8962 26.25 24.7819 26.25 25.9534 25.0784C27.125 23.9069 27.125 22.0212 27.125 18.25V11.75C27.125 7.97876 27.125 6.09315 25.9534 4.92157C24.7819 3.75 22.8962 3.75 19.125 3.75H11.875C8.10376 3.75 6.21815 3.75 5.04657 4.92157ZM14.5 8.75V14H9.04167V16H14.5L14.5 21.25H16.5L16.5 16H21.9583V14H16.5V8.75H14.5Z" fill="white"/>
</svg>
