<svg width="37" height="29" viewBox="0 0 37 29" fill="none" xmlns="http://www.w3.org/2000/svg">
<path d="M8.21876 17.8051L17.9211 24.9488C18.1931 25.149 18.3291 25.2492 18.485 25.2539C18.495 25.2542 18.505 25.2542 18.515 25.2539C18.6709 25.2492 18.8069 25.149 19.0789 24.9488L28.7813 17.8051C32.3007 15.2138 32.6998 10.1022 29.6251 6.99605C26.7132 4.05447 21.813 4.62883 19.6603 8.16403L19.2463 8.84381C18.9059 9.40294 18.0942 9.40294 17.7537 8.84381L17.3397 8.16403C15.187 4.62882 10.2868 4.05447 7.37495 6.99605C4.30023 10.1022 4.69927 15.2138 8.21876 17.8051Z" stroke="#333333" stroke-width="2"/>
</svg>
